<svg xmlns="http://www.w3.org/2000/svg" xmlns:xlink="http://www.w3.org/1999/xlink" width="329" zoomAndPan="magnify" viewBox="0 0 246.75 205.499994" height="274" preserveAspectRatio="xMidYMid meet" version="1.0"><defs><clipPath id="8c268224bb"><path d="M 24.902344 1.371094 L 105 1.371094 L 105 51 L 24.902344 51 Z M 24.902344 1.371094 " clip-rule="nonzero"/></clipPath><clipPath id="4e33120f97"><path d="M 24.902344 23 L 106 23 L 106 203.378906 L 24.902344 203.378906 Z M 24.902344 23 " clip-rule="nonzero"/></clipPath><clipPath id="91213f926f"><path d="M 100 111 L 183 111 L 183 203.378906 L 100 203.378906 Z M 100 111 " clip-rule="nonzero"/></clipPath><clipPath id="9ba46479e7"><path d="M 177 45 L 221.671875 45 L 221.671875 118 L 177 118 Z M 177 45 " clip-rule="nonzero"/></clipPath><clipPath id="39a894eeea"><path d="M 139 24 L 221.671875 24 L 221.671875 73 L 139 73 Z M 139 24 " clip-rule="nonzero"/></clipPath></defs><g clip-path="url(#8c268224bb)"><path fill="#ef0a1b" d="M 65.738281 50.964844 C 65.257812 50.964844 64.808594 50.84375 64.390625 50.605469 L 64.125 50.453125 L 26.296875 28.554688 C 26.09375 28.4375 25.910156 28.296875 25.746094 28.132812 C 25.578125 27.96875 25.4375 27.785156 25.320312 27.582031 C 25.203125 27.378906 25.113281 27.164062 25.050781 26.941406 C 24.988281 26.714844 24.957031 26.484375 24.957031 26.253906 C 24.957031 26.019531 24.984375 25.789062 25.042969 25.5625 C 25.101562 25.335938 25.1875 25.121094 25.300781 24.917969 C 25.417969 24.714844 25.554688 24.527344 25.71875 24.363281 C 25.882812 24.195312 26.066406 24.050781 26.265625 23.929688 L 63.203125 1.878906 C 63.628906 1.625 64.089844 1.5 64.585938 1.5 C 65.082031 1.5 65.539062 1.628906 65.964844 1.882812 L 103.605469 24.410156 C 103.808594 24.53125 103.988281 24.671875 104.152344 24.839844 C 104.3125 25.007812 104.453125 25.191406 104.566406 25.394531 C 104.679688 25.59375 104.765625 25.808594 104.824219 26.035156 C 104.886719 26.257812 104.914062 26.488281 104.914062 26.71875 C 104.914062 26.953125 104.882812 27.179688 104.824219 27.40625 C 104.761719 27.628906 104.675781 27.84375 104.558594 28.046875 C 104.441406 28.246094 104.304688 28.429688 104.140625 28.597656 C 103.976562 28.761719 103.796875 28.902344 103.59375 29.023438 L 67.109375 50.589844 C 66.683594 50.839844 66.230469 50.964844 65.738281 50.964844 Z M 32.945312 26.199219 L 65.722656 45.171875 L 96.972656 26.699219 L 64.582031 7.3125 Z M 32.945312 26.199219 " fill-opacity="1" fill-rule="nonzero"/></g><g clip-path="url(#4e33120f97)"><path fill="#ef0a1b" d="M 103.300781 203.378906 C 102.835938 203.378906 102.402344 203.265625 101.996094 203.042969 L 26.339844 161.109375 C 25.914062 160.875 25.574219 160.546875 25.328125 160.125 C 25.082031 159.707031 24.957031 159.25 24.957031 158.765625 L 24.957031 26.234375 C 24.957031 25.753906 25.078125 25.304688 25.316406 24.890625 C 25.558594 24.476562 25.886719 24.148438 26.304688 23.90625 C 26.71875 23.667969 27.167969 23.546875 27.648438 23.550781 C 28.128906 23.550781 28.578125 23.671875 28.992188 23.910156 L 66.820312 45.804688 C 67.234375 46.046875 67.5625 46.375 67.800781 46.789062 C 68.042969 47.203125 68.160156 47.648438 68.160156 48.128906 L 68.160156 134.960938 L 104.65625 156.183594 C 105.066406 156.425781 105.394531 156.753906 105.632812 157.167969 C 105.871094 157.582031 105.988281 158.027344 105.988281 158.503906 L 105.988281 200.695312 C 105.988281 201.050781 105.921875 201.394531 105.785156 201.722656 C 105.648438 202.050781 105.453125 202.339844 105.203125 202.59375 C 104.949219 202.84375 104.660156 203.039062 104.328125 203.175781 C 104 203.3125 103.65625 203.378906 103.300781 203.378906 Z M 30.332031 157.183594 L 100.613281 196.132812 L 100.613281 160.046875 L 64.121094 138.824219 C 63.707031 138.582031 63.378906 138.253906 63.140625 137.839844 C 62.902344 137.425781 62.785156 136.980469 62.785156 136.503906 L 62.785156 49.675781 L 30.332031 30.890625 Z M 30.332031 157.183594 " fill-opacity="1" fill-rule="nonzero"/></g><path fill="#ef0a1b" d="M 65.472656 139.1875 C 65.117188 139.1875 64.773438 139.121094 64.445312 138.984375 C 64.113281 138.847656 63.824219 138.652344 63.570312 138.402344 C 63.320312 138.148438 63.125 137.859375 62.988281 137.53125 C 62.851562 137.203125 62.785156 136.859375 62.785156 136.503906 L 62.785156 48.128906 C 62.785156 47.792969 62.84375 47.46875 62.96875 47.152344 C 63.089844 46.839844 63.265625 46.558594 63.492188 46.3125 C 63.71875 46.066406 63.984375 45.867188 64.289062 45.71875 C 64.589844 45.570312 64.910156 45.484375 65.242188 45.453125 L 100.855469 24.402344 C 101.058594 24.28125 101.273438 24.191406 101.5 24.128906 C 101.726562 24.0625 101.960938 24.03125 102.195312 24.027344 C 102.429688 24.027344 102.664062 24.054688 102.890625 24.113281 C 103.121094 24.171875 103.335938 24.257812 103.542969 24.371094 C 103.75 24.488281 103.933594 24.628906 104.105469 24.792969 C 104.273438 24.957031 104.417969 25.140625 104.539062 25.34375 C 104.65625 25.546875 104.75 25.761719 104.8125 25.988281 C 104.878906 26.214844 104.910156 26.445312 104.914062 26.679688 L 105.988281 113.953125 C 105.996094 114.433594 105.882812 114.878906 105.648438 115.296875 C 105.414062 115.714844 105.089844 116.046875 104.679688 116.292969 L 66.851562 138.808594 C 66.425781 139.0625 65.96875 139.1875 65.472656 139.1875 Z M 68.160156 49.96875 L 68.160156 131.777344 L 100.59375 112.472656 L 99.59375 31.386719 Z M 68.160156 49.96875 " fill-opacity="1" fill-rule="nonzero"/><g clip-path="url(#91213f926f)"><path fill="#ef0a1b" d="M 103.300781 203.378906 C 102.945312 203.378906 102.601562 203.3125 102.273438 203.175781 C 101.941406 203.039062 101.652344 202.84375 101.398438 202.59375 C 101.148438 202.339844 100.953125 202.050781 100.816406 201.722656 C 100.679688 201.394531 100.613281 201.050781 100.613281 200.695312 L 100.613281 158.503906 C 100.613281 158.023438 100.734375 157.574219 100.976562 157.160156 C 101.21875 156.742188 101.546875 156.414062 101.964844 156.175781 L 178.964844 112.175781 C 179.167969 112.058594 179.382812 111.96875 179.613281 111.910156 C 179.839844 111.847656 180.070312 111.820312 180.308594 111.820312 C 180.542969 111.820312 180.773438 111.851562 181 111.914062 C 181.230469 111.972656 181.445312 112.0625 181.648438 112.179688 C 181.851562 112.300781 182.035156 112.441406 182.203125 112.609375 C 182.371094 112.773438 182.511719 112.960938 182.628906 113.164062 C 182.746094 113.367188 182.835938 113.582031 182.898438 113.808594 C 182.957031 114.039062 182.988281 114.269531 182.988281 114.503906 L 182.988281 158.503906 C 182.988281 158.996094 182.863281 159.449219 182.613281 159.871094 C 182.363281 160.292969 182.023438 160.621094 181.59375 160.859375 L 104.59375 203.046875 C 104.191406 203.269531 103.761719 203.378906 103.300781 203.378906 Z M 105.988281 160.0625 L 105.988281 196.160156 L 177.609375 156.917969 L 177.609375 119.132812 Z M 105.988281 160.0625 " fill-opacity="1" fill-rule="nonzero"/></g><path fill="#ef0a1b" d="M 103.300781 161.1875 C 102.816406 161.1875 102.367188 161.066406 101.949219 160.824219 L 64.121094 138.824219 C 63.917969 138.707031 63.734375 138.5625 63.570312 138.398438 C 63.402344 138.234375 63.261719 138.050781 63.144531 137.847656 C 63.027344 137.644531 62.9375 137.429688 62.878906 137.207031 C 62.816406 136.980469 62.785156 136.75 62.785156 136.519531 C 62.785156 136.285156 62.8125 136.054688 62.871094 135.828125 C 62.929688 135.601562 63.015625 135.386719 63.132812 135.183594 C 63.246094 134.980469 63.386719 134.796875 63.550781 134.628906 C 63.714844 134.460938 63.894531 134.316406 64.097656 134.199219 L 101.925781 111.679688 C 101.953125 111.664062 101.980469 111.648438 102.011719 111.632812 L 140.378906 90.667969 C 140.785156 90.445312 141.21875 90.335938 141.679688 90.335938 C 142.144531 90.339844 142.574219 90.453125 142.980469 90.675781 L 181.609375 112.160156 C 182.03125 112.394531 182.367188 112.71875 182.613281 113.136719 C 182.859375 113.554688 182.984375 114.003906 182.988281 114.488281 C 182.992188 114.972656 182.871094 115.421875 182.628906 115.84375 C 182.386719 116.261719 182.054688 116.59375 181.636719 116.832031 L 104.636719 160.835938 C 104.222656 161.070312 103.777344 161.1875 103.300781 161.1875 Z M 70.769531 136.476562 L 103.3125 155.40625 L 174.832031 114.535156 L 141.660156 96.085938 L 104.636719 116.316406 Z M 70.769531 136.476562 " fill-opacity="1" fill-rule="nonzero"/><path fill="#ef0a1b" d="M 180.300781 117.1875 C 179.832031 117.1875 179.398438 117.074219 178.992188 116.847656 L 140.363281 95.367188 C 139.933594 95.128906 139.597656 94.796875 139.351562 94.378906 C 139.105469 93.957031 138.980469 93.5 138.980469 93.011719 L 139.113281 48.273438 C 139.113281 48.039062 139.144531 47.808594 139.203125 47.582031 C 139.265625 47.355469 139.355469 47.140625 139.472656 46.9375 C 139.589844 46.734375 139.734375 46.550781 139.898438 46.382812 C 140.066406 46.21875 140.25 46.074219 140.453125 45.957031 C 140.65625 45.839844 140.875 45.75 141.101562 45.691406 C 141.328125 45.628906 141.558594 45.597656 141.792969 45.597656 C 142.027344 45.597656 142.257812 45.625 142.488281 45.6875 C 142.714844 45.746094 142.929688 45.835938 143.132812 45.949219 L 181.632812 67.914062 C 182.050781 68.152344 182.382812 68.480469 182.625 68.898438 C 182.867188 69.3125 182.988281 69.761719 182.988281 70.246094 L 182.988281 114.503906 C 182.988281 114.859375 182.917969 115.203125 182.785156 115.53125 C 182.648438 115.859375 182.453125 116.148438 182.199219 116.402344 C 181.949219 116.652344 181.65625 116.847656 181.328125 116.984375 C 181 117.121094 180.65625 117.1875 180.300781 117.1875 Z M 144.363281 91.445312 L 177.609375 109.9375 L 177.609375 71.800781 L 144.476562 52.898438 Z M 144.363281 91.445312 " fill-opacity="1" fill-rule="nonzero"/><g clip-path="url(#9ba46479e7)"><path fill="#ef0a1b" d="M 180.300781 117.1875 C 179.941406 117.1875 179.601562 117.121094 179.269531 116.984375 C 178.941406 116.847656 178.648438 116.652344 178.398438 116.402344 C 178.144531 116.148438 177.953125 115.859375 177.816406 115.53125 C 177.679688 115.203125 177.609375 114.859375 177.609375 114.503906 L 177.609375 70.246094 C 177.609375 69.761719 177.730469 69.3125 177.976562 68.894531 C 178.21875 68.480469 178.550781 68.152344 178.96875 67.914062 L 217.597656 45.949219 C 217.800781 45.832031 218.019531 45.746094 218.246094 45.683594 C 218.472656 45.625 218.703125 45.597656 218.941406 45.597656 C 219.175781 45.597656 219.40625 45.628906 219.632812 45.691406 C 219.859375 45.753906 220.074219 45.84375 220.28125 45.960938 C 220.484375 46.078125 220.667969 46.222656 220.832031 46.386719 C 221 46.554688 221.140625 46.738281 221.257812 46.941406 C 221.375 47.148438 221.464844 47.363281 221.527344 47.589844 C 221.585938 47.816406 221.617188 48.046875 221.617188 48.28125 L 221.617188 93.019531 C 221.617188 93.507812 221.492188 93.960938 221.246094 94.378906 C 221 94.800781 220.664062 95.128906 220.238281 95.367188 L 181.609375 116.847656 C 181.199219 117.074219 180.765625 117.1875 180.300781 117.1875 Z M 182.988281 71.804688 L 182.988281 109.9375 L 216.238281 91.445312 L 216.238281 52.898438 Z M 182.988281 71.804688 " fill-opacity="1" fill-rule="nonzero"/></g><g clip-path="url(#39a894eeea)"><path fill="#ef0a1b" d="M 180.300781 72.929688 C 179.824219 72.929688 179.378906 72.8125 178.964844 72.574219 L 140.46875 50.613281 C 140.046875 50.371094 139.714844 50.042969 139.472656 49.625 C 139.230469 49.207031 139.109375 48.753906 139.113281 48.269531 C 139.113281 47.789062 139.238281 47.335938 139.484375 46.921875 C 139.730469 46.503906 140.0625 46.175781 140.484375 45.941406 L 178.984375 24.371094 C 179.390625 24.144531 179.828125 24.027344 180.296875 24.027344 C 180.765625 24.027344 181.203125 24.140625 181.613281 24.371094 L 220.242188 45.9375 C 220.664062 46.175781 221 46.5 221.246094 46.917969 C 221.492188 47.335938 221.613281 47.785156 221.617188 48.269531 C 221.617188 48.753906 221.5 49.207031 221.253906 49.625 C 221.011719 50.042969 220.679688 50.375 220.257812 50.613281 L 181.628906 72.578125 C 181.21875 72.8125 180.773438 72.929688 180.300781 72.929688 Z M 147.257812 48.300781 L 180.300781 67.152344 L 213.457031 48.300781 L 180.300781 29.789062 Z M 147.257812 48.300781 " fill-opacity="1" fill-rule="nonzero"/></g></svg>