<svg xmlns="http://www.w3.org/2000/svg" xmlns:xlink="http://www.w3.org/1999/xlink" width="329" zoomAndPan="magnify" viewBox="0 0 246.75 205.499994" height="274" preserveAspectRatio="xMidYMid meet" version="1.0"><defs><clipPath id="6c18ac0d47"><path d="M 24.007812 3.257812 L 222.277344 3.257812 L 222.277344 201.527344 L 24.007812 201.527344 Z M 24.007812 3.257812 " clip-rule="nonzero"/></clipPath><clipPath id="b56afb22ad"><path d="M 59.132812 47.164062 L 187.328125 47.164062 L 187.328125 201.527344 L 59.132812 201.527344 Z M 59.132812 47.164062 " clip-rule="nonzero"/></clipPath></defs><g clip-path="url(#6c18ac0d47)"><path fill="#898989" d="M 24.007812 102.394531 C 24.007812 47.644531 68.394531 3.257812 123.144531 3.257812 C 177.894531 3.257812 222.277344 47.644531 222.277344 102.394531 C 222.277344 157.144531 177.894531 201.527344 123.144531 201.527344 C 68.394531 201.527344 24.007812 157.144531 24.007812 102.394531 " fill-opacity="1" fill-rule="nonzero"/></g><g clip-path="url(#b56afb22ad)"><path fill="#494949" d="M 123.144531 201.527344 C 147.472656 201.527344 169.757812 192.761719 187.007812 178.214844 C 185.96875 176.296875 185.246094 175.015625 185.160156 174.5625 C 184.855469 172.957031 183.296875 172.957031 183.296875 172.957031 C 165.28125 166.722656 155.507812 168.632812 154.046875 164.183594 C 152.421875 159.214844 149.207031 160.539062 149.207031 160.539062 C 149.207031 160.539062 145.453125 149.667969 145.453125 145.820312 C 145.453125 141.96875 151.285156 141.695312 154.058594 126.449219 C 156.832031 111.203125 159.601562 123.675781 161.679688 107.394531 C 163.757812 91.105469 159.429688 97.171875 158.214844 97.171875 C 157.003906 97.171875 160.570312 84.308594 158.492188 74.605469 L 160.152344 77.90625 L 159.195312 72.015625 L 161.492188 75.667969 C 161.492188 75.667969 161.621094 57.675781 139.449219 50.101562 C 121.355469 44.777344 111.953125 49.011719 107.265625 53.410156 C 109.355469 50.464844 111.78125 48.503906 111.78125 48.503906 C 108.097656 51.316406 106.011719 53.808594 104.824219 55.726562 C 106.304688 51.066406 109.765625 47.300781 109.765625 47.300781 C 104.230469 53.011719 103.195312 57.097656 103.027344 58.792969 C 102.96875 58.761719 102.910156 58.730469 102.839844 58.695312 C 101.632812 55.882812 101.957031 52.355469 101.957031 52.355469 C 101.625 55.132812 101.785156 57.074219 102.09375 58.417969 C 100.722656 58.023438 98.191406 57.863281 93.691406 59.085938 C 93.691406 59.085938 97.871094 58.0625 100.933594 59.019531 C 96.199219 58.347656 89.910156 62.234375 88.109375 70.628906 C 86.03125 80.332031 89.207031 97.308594 87.996094 97.308594 C 86.78125 97.308594 82.449219 91.246094 84.527344 107.53125 C 86.609375 123.816406 89.378906 111.34375 92.152344 126.589844 C 94.921875 141.832031 100.8125 142.054688 100.8125 145.902344 C 100.8125 149.753906 97.351562 160.679688 97.351562 160.679688 C 97.351562 160.679688 93.625 159.765625 92.066406 164.183594 C 90.507812 168.601562 80.832031 166.722656 62.816406 172.957031 C 62.816406 172.957031 61.257812 172.957031 60.953125 174.5625 C 60.867188 175.003906 60.171875 176.253906 59.160156 178.117188 C 76.425781 192.722656 98.757812 201.527344 123.144531 201.527344 " fill-opacity="1" fill-rule="nonzero"/></g></svg>