<svg xmlns="http://www.w3.org/2000/svg" xmlns:xlink="http://www.w3.org/1999/xlink" width="329" zoomAndPan="magnify" viewBox="0 0 246.75 205.499994" height="274" preserveAspectRatio="xMidYMid meet" version="1.0"><path fill="#898989" d="M 123.246094 7.140625 C 120.753906 7.140625 118.261719 7.238281 115.777344 7.433594 C 113.292969 7.628906 110.816406 7.921875 108.355469 8.3125 C 105.890625 8.703125 103.449219 9.1875 101.023438 9.765625 C 98.597656 10.347656 96.199219 11.019531 93.828125 11.789062 C 91.457031 12.554688 89.117188 13.414062 86.8125 14.363281 C 84.507812 15.3125 82.242188 16.351562 80.019531 17.480469 C 77.792969 18.605469 75.617188 19.820312 73.488281 21.117188 C 71.359375 22.414062 69.285156 23.792969 67.261719 25.25 C 65.242188 26.710938 63.28125 28.246094 61.378906 29.859375 C 59.476562 31.472656 57.640625 33.15625 55.871094 34.914062 C 54.101562 36.667969 52.402344 38.492188 50.773438 40.378906 C 49.148438 42.269531 47.597656 44.21875 46.121094 46.230469 C 44.644531 48.238281 43.25 50.304688 41.9375 52.421875 C 40.625 54.542969 39.394531 56.707031 38.25 58.921875 C 37.105469 61.136719 36.050781 63.394531 35.082031 65.691406 C 34.113281 67.988281 33.234375 70.320312 32.449219 72.6875 C 31.664062 75.054688 30.972656 77.449219 30.371094 79.867188 C 29.773438 82.289062 29.269531 84.726562 28.863281 87.1875 C 28.453125 89.648438 28.140625 92.117188 27.925781 94.601562 C 27.710938 97.085938 27.59375 99.574219 27.570312 102.070312 C 27.550781 104.5625 27.628906 107.050781 27.800781 109.539062 C 27.976562 112.027344 28.246094 114.503906 28.613281 116.96875 C 28.980469 119.433594 29.445312 121.882812 30 124.3125 C 30.558594 126.742188 31.214844 129.148438 31.960938 131.527344 C 32.707031 133.90625 33.542969 136.25 34.472656 138.566406 C 35.402344 140.878906 36.421875 143.152344 37.53125 145.386719 C 38.636719 147.621094 39.828125 149.804688 41.109375 151.945312 C 42.386719 154.085938 43.746094 156.175781 45.1875 158.210938 C 46.628906 160.242188 48.148438 162.21875 49.742188 164.132812 C 51.339844 166.050781 53.007812 167.902344 54.746094 169.6875 C 56.488281 171.472656 58.296875 173.1875 60.171875 174.832031 C 62.042969 176.476562 63.980469 178.042969 65.976562 179.535156 C 66.496094 179.925781 67.078125 180.171875 67.71875 180.273438 C 68.359375 180.378906 68.988281 180.328125 69.605469 180.125 L 75.253906 178.226562 L 96.753906 167.433594 C 103.136719 163.773438 107.691406 147.027344 109.339844 140 C 109.453125 139.535156 109.476562 139.066406 109.417969 138.59375 C 109.359375 138.121094 109.222656 137.671875 109 137.246094 C 108.78125 136.824219 108.496094 136.453125 108.140625 136.128906 C 107.789062 135.808594 107.390625 135.558594 106.949219 135.382812 C 100.78125 132.902344 94.792969 130.042969 88.992188 126.796875 C 93.417969 113.460938 95.503906 99.765625 95.246094 85.714844 C 95.246094 61.601562 106.078125 50.617188 116.144531 50.617188 C 117.261719 50.613281 118.210938 50.214844 118.992188 49.417969 L 121.308594 47.027344 C 141.992188 47.625 151.238281 59.621094 151.238281 85.691406 C 150.980469 99.75 153.066406 113.453125 157.5 126.796875 C 151.703125 130.03125 145.722656 132.878906 139.558594 135.351562 C 139.117188 135.527344 138.71875 135.777344 138.367188 136.097656 C 138.011719 136.417969 137.726562 136.792969 137.507812 137.214844 C 137.285156 137.640625 137.148438 138.089844 137.089844 138.5625 C 137.03125 139.035156 137.054688 139.503906 137.167969 139.96875 C 138.824219 146.996094 143.355469 163.742188 149.929688 167.507812 L 169.800781 177.476562 L 170.78125 180.207031 C 170.886719 180.492188 171.019531 180.761719 171.183594 181.019531 C 171.347656 181.273438 171.539062 181.507812 171.753906 181.71875 C 171.972656 181.929688 172.210938 182.117188 172.472656 182.273438 C 172.730469 182.429688 173.003906 182.554688 173.292969 182.652344 C 173.582031 182.746094 173.878906 182.804688 174.179688 182.832031 C 174.484375 182.859375 174.785156 182.851562 175.085938 182.8125 C 175.386719 182.769531 175.679688 182.695312 175.960938 182.585938 C 176.246094 182.476562 176.511719 182.339844 176.765625 182.167969 C 178.871094 180.746094 180.914062 179.242188 182.898438 177.65625 C 184.882812 176.070312 186.800781 174.410156 188.652344 172.671875 C 190.507812 170.933594 192.285156 169.125 193.996094 167.242188 C 195.703125 165.363281 197.332031 163.417969 198.886719 161.410156 C 200.441406 159.398438 201.910156 157.332031 203.300781 155.203125 C 204.6875 153.078125 205.992188 150.898438 207.207031 148.667969 C 208.421875 146.4375 209.546875 144.160156 210.582031 141.839844 C 211.617188 139.523438 212.554688 137.164062 213.402344 134.769531 C 214.25 132.375 215 129.949219 215.652344 127.496094 C 216.304688 125.039062 216.859375 122.5625 217.316406 120.066406 C 217.773438 117.566406 218.128906 115.050781 218.386719 112.527344 C 218.640625 110 218.796875 107.464844 218.851562 104.925781 C 218.90625 102.386719 218.859375 99.847656 218.714844 97.3125 C 218.566406 94.777344 218.316406 92.25 217.96875 89.734375 C 217.621094 87.21875 217.171875 84.71875 216.625 82.238281 C 216.078125 79.757812 215.433594 77.304688 214.691406 74.875 C 213.949219 72.445312 213.109375 70.050781 212.175781 67.6875 C 211.242188 65.324219 210.21875 63.003906 209.097656 60.722656 C 207.980469 58.441406 206.773438 56.210938 205.476562 54.023438 C 204.179688 51.839844 202.800781 49.710938 201.335938 47.636719 C 199.871094 45.5625 198.324219 43.546875 196.699219 41.597656 C 195.070312 39.644531 193.371094 37.761719 191.59375 35.945312 C 189.820312 34.128906 187.972656 32.386719 186.058594 30.714844 C 184.144531 29.046875 182.167969 27.457031 180.125 25.945312 C 178.085938 24.429688 175.988281 23.003906 173.832031 21.65625 C 171.675781 20.3125 169.472656 19.054688 167.21875 17.886719 C 164.960938 16.71875 162.664062 15.640625 160.324219 14.652344 C 157.984375 13.667969 155.605469 12.773438 153.195312 11.976562 C 150.78125 11.179688 148.34375 10.480469 145.875 9.875 C 143.410156 9.273438 140.921875 8.769531 138.414062 8.363281 C 135.90625 7.960938 133.386719 7.652344 130.855469 7.449219 C 128.320312 7.246094 125.785156 7.140625 123.246094 7.140625 Z M 123.246094 7.140625 " fill-opacity="1" fill-rule="nonzero"/><path fill="#494949" d="M 176.78125 173.3125 C 176.421875 172.3125 175.765625 171.574219 174.8125 171.097656 L 153.703125 160.511719 C 149.699219 154.71875 147.039062 148.363281 145.726562 141.445312 C 152.355469 138.757812 158.683594 135.488281 164.710938 131.640625 C 165.089844 131.371094 165.414062 131.042969 165.679688 130.660156 C 165.945312 130.277344 166.136719 129.859375 166.253906 129.40625 C 166.375 128.957031 166.414062 128.496094 166.371094 128.035156 C 166.328125 127.570312 166.210938 127.125 166.011719 126.703125 C 163.550781 120.160156 161.746094 113.441406 160.605469 106.542969 C 159.460938 99.644531 159 92.703125 159.222656 85.714844 C 159.222656 54.746094 145.910156 39.046875 119.65625 39.046875 C 118.539062 39.046875 117.589844 39.445312 116.808594 40.246094 L 114.414062 42.710938 C 101.011719 43.835938 87.269531 57.355469 87.269531 85.714844 C 87.488281 92.703125 87.023438 99.648438 85.875 106.546875 C 84.730469 113.445312 82.921875 120.167969 80.457031 126.710938 C 80.257812 127.132812 80.136719 127.578125 80.097656 128.042969 C 80.054688 128.507812 80.09375 128.964844 80.210938 129.414062 C 80.332031 129.867188 80.523438 130.285156 80.789062 130.667969 C 81.054688 131.050781 81.375 131.378906 81.757812 131.648438 C 87.785156 135.496094 94.113281 138.761719 100.742188 141.453125 C 99.417969 148.289062 96.828125 154.605469 92.972656 160.40625 L 72.191406 170.871094 L 67.085938 172.546875 C 66.378906 172.78125 65.785156 173.179688 65.300781 173.742188 C 64.816406 174.308594 64.515625 174.957031 64.394531 175.691406 C 64.273438 176.421875 64.351562 177.136719 64.628906 177.824219 C 64.90625 178.515625 65.34375 179.082031 65.9375 179.527344 C 67.910156 181.003906 69.9375 182.402344 72.015625 183.722656 C 74.097656 185.046875 76.226562 186.28125 78.402344 187.4375 C 80.582031 188.59375 82.796875 189.664062 85.058594 190.648438 C 87.316406 191.632812 89.613281 192.527344 91.941406 193.332031 C 94.269531 194.140625 96.625 194.855469 99.011719 195.480469 C 101.394531 196.105469 103.800781 196.636719 106.222656 197.074219 C 108.648438 197.511719 111.089844 197.855469 113.539062 198.105469 C 115.992188 198.355469 118.449219 198.507812 120.914062 198.566406 C 123.378906 198.628906 125.839844 198.589844 128.300781 198.460938 C 130.761719 198.328125 133.214844 198.101562 135.65625 197.78125 C 138.101562 197.460938 140.527344 197.046875 142.941406 196.535156 C 145.351562 196.027344 147.738281 195.425781 150.105469 194.734375 C 152.46875 194.039062 154.804688 193.253906 157.109375 192.378906 C 159.410156 191.507812 161.679688 190.542969 163.910156 189.496094 C 166.136719 188.445312 168.324219 187.3125 170.464844 186.09375 C 172.609375 184.871094 174.699219 183.574219 176.742188 182.191406 C 177.109375 181.945312 177.425781 181.644531 177.691406 181.289062 C 177.957031 180.933594 178.160156 180.546875 178.296875 180.125 C 178.433594 179.707031 178.5 179.273438 178.492188 178.832031 C 178.484375 178.386719 178.40625 177.957031 178.257812 177.542969 Z M 176.78125 173.3125 " fill-opacity="1" fill-rule="nonzero"/></svg>