<svg xmlns="http://www.w3.org/2000/svg" xmlns:xlink="http://www.w3.org/1999/xlink" width="70" zoomAndPan="magnify" viewBox="0 0 246.75 205.499994" height="70" preserveAspectRatio="xMidYMid meet" version="1.0"><defs><clipPath id="c1ab2fdd4f"><path d="M 144 2 L 246 2 L 246 79 L 144 79 Z M 144 2 " clip-rule="nonzero"/></clipPath><clipPath id="c7b330cba2"><path d="M 245.691406 42.089844 L 245.691406 2.101562 L 144.832031 56.476562 L 181 78.125 Z M 245.691406 42.089844 " clip-rule="nonzero"/></clipPath><clipPath id="fdd36fc69f"><path d="M 0.175781 0 L 246.324219 0 L 246.324219 204.9375 L 0.175781 204.9375 Z M 0.175781 0 " clip-rule="nonzero"/></clipPath><clipPath id="ad6638279f"><path d="M 178.199219 96.777344 L 0.175781 -0.03125 L 0.175781 40.113281 L 180.488281 138.546875 L 208.761719 123.523438 L 208.761719 184.898438 L 246.324219 205.023438 L 246.324219 63.605469 Z M 178.199219 96.777344 " clip-rule="nonzero"/></clipPath><clipPath id="efa3c07711"><path d="M 0.175781 62 L 156 62 L 156 202 L 0.175781 202 Z M 0.175781 62 " clip-rule="nonzero"/></clipPath><clipPath id="9e12017b1b"><path d="M 0.292969 201.988281 L 35.082031 183.007812 L 35.1875 117.082031 L 122.996094 166.09375 L 155.855469 146.632812 L 0.316406 62.265625 Z M 0.292969 201.988281 " clip-rule="nonzero"/></clipPath></defs><g clip-path="url(#c1ab2fdd4f)"><g clip-path="url(#c7b330cba2)"><path fill="#ffffff" d="M 144.832031 2.101562 L 144.832031 78.125 L 245.691406 78.125 L 245.691406 2.101562 Z M 144.832031 2.101562 " fill-opacity="1" fill-rule="nonzero"/></g></g><g clip-path="url(#fdd36fc69f)"><g clip-path="url(#ad6638279f)"><path fill="#ffffff" d="M 0.175781 0 L 0.175781 204.9375 L 246.324219 204.9375 L 246.324219 0 Z M 0.175781 0 " fill-opacity="1" fill-rule="nonzero"/></g></g><g clip-path="url(#efa3c07711)"><g clip-path="url(#9e12017b1b)"><path fill="#ffffff" d="M 0.292969 62.265625 L 0.292969 201.988281 L 155.855469 201.988281 L 155.855469 62.265625 Z M 0.292969 62.265625 " fill-opacity="1" fill-rule="nonzero"/></g></g></svg>